<svg width="47" height="47" viewBox="0 0 47 47" fill="none" xmlns="http://www.w3.org/2000/svg">
<g clip-path="url(#clip0_1110_1283)">
<path d="M10.2812 0C10.6708 0 11.0444 0.154743 11.3198 0.430187C11.5953 0.705631 11.75 1.07921 11.75 1.46875V2.9375H35.25V1.46875C35.25 1.07921 35.4047 0.705631 35.6802 0.430187C35.9556 0.154743 36.3292 0 36.7188 0C37.1083 0 37.4819 0.154743 37.7573 0.430187C38.0328 0.705631 38.1875 1.07921 38.1875 1.46875V2.9375H41.125C42.6831 2.9375 44.1775 3.55647 45.2793 4.65825C46.381 5.76002 47 7.25435 47 8.8125V41.125C47 42.6831 46.381 44.1775 45.2793 45.2793C44.1775 46.381 42.6831 47 41.125 47H5.875C4.31685 47 2.82252 46.381 1.72075 45.2793C0.618972 44.1775 0 42.6831 0 41.125V8.8125C0 7.25435 0.618972 5.76002 1.72075 4.65825C2.82252 3.55647 4.31685 2.9375 5.875 2.9375H8.8125V1.46875C8.8125 1.07921 8.96724 0.705631 9.24269 0.430187C9.51813 0.154743 9.89171 0 10.2812 0ZM5.875 5.875C5.09593 5.875 4.34876 6.18449 3.79787 6.73537C3.24699 7.28626 2.9375 8.03343 2.9375 8.8125V41.125C2.9375 41.9041 3.24699 42.6512 3.79787 43.2021C4.34876 43.753 5.09593 44.0625 5.875 44.0625H41.125C41.9041 44.0625 42.6512 43.753 43.2021 43.2021C43.753 42.6512 44.0625 41.9041 44.0625 41.125V8.8125C44.0625 8.03343 43.753 7.28626 43.2021 6.73537C42.6512 6.18449 41.9041 5.875 41.125 5.875H5.875Z" fill="#097CFA"/>
<path d="M7.34375 11.75C7.34375 11.3605 7.49849 10.9869 7.77394 10.7114C8.04938 10.436 8.42296 10.2812 8.8125 10.2812H38.1875C38.577 10.2812 38.9506 10.436 39.2261 10.7114C39.5015 10.9869 39.6562 11.3605 39.6562 11.75V14.6875C39.6562 15.077 39.5015 15.4506 39.2261 15.7261C38.9506 16.0015 38.577 16.1562 38.1875 16.1562H8.8125C8.42296 16.1562 8.04938 16.0015 7.77394 15.7261C7.49849 15.4506 7.34375 15.077 7.34375 14.6875V11.75ZM32.3125 22.0312C32.3125 21.6417 32.4672 21.2681 32.7427 20.9927C33.0181 20.7172 33.3917 20.5625 33.7812 20.5625H36.7188C37.1083 20.5625 37.4819 20.7172 37.7573 20.9927C38.0328 21.2681 38.1875 21.6417 38.1875 22.0312V24.9688C38.1875 25.3583 38.0328 25.7319 37.7573 26.0073C37.4819 26.2828 37.1083 26.4375 36.7188 26.4375H33.7812C33.3917 26.4375 33.0181 26.2828 32.7427 26.0073C32.4672 25.7319 32.3125 25.3583 32.3125 24.9688V22.0312ZM23.5 22.0312C23.5 21.6417 23.6547 21.2681 23.9302 20.9927C24.2056 20.7172 24.5792 20.5625 24.9688 20.5625H27.9062C28.2958 20.5625 28.6694 20.7172 28.9448 20.9927C29.2203 21.2681 29.375 21.6417 29.375 22.0312V24.9688C29.375 25.3583 29.2203 25.7319 28.9448 26.0073C28.6694 26.2828 28.2958 26.4375 27.9062 26.4375H24.9688C24.5792 26.4375 24.2056 26.2828 23.9302 26.0073C23.6547 25.7319 23.5 25.3583 23.5 24.9688V22.0312ZM8.8125 30.8438C8.8125 30.4542 8.96724 30.0806 9.24269 29.8052C9.51813 29.5297 9.89171 29.375 10.2812 29.375H13.2188C13.6083 29.375 13.9819 29.5297 14.2573 29.8052C14.5328 30.0806 14.6875 30.4542 14.6875 30.8438V33.7812C14.6875 34.1708 14.5328 34.5444 14.2573 34.8198C13.9819 35.0953 13.6083 35.25 13.2188 35.25H10.2812C9.89171 35.25 9.51813 35.0953 9.24269 34.8198C8.96724 34.5444 8.8125 34.1708 8.8125 33.7812V30.8438ZM17.625 30.8438C17.625 30.4542 17.7797 30.0806 18.0552 29.8052C18.3306 29.5297 18.7042 29.375 19.0938 29.375H22.0312C22.4208 29.375 22.7944 29.5297 23.0698 29.8052C23.3453 30.0806 23.5 30.4542 23.5 30.8438V33.7812C23.5 34.1708 23.3453 34.5444 23.0698 34.8198C22.7944 35.0953 22.4208 35.25 22.0312 35.25H19.0938C18.7042 35.25 18.3306 35.0953 18.0552 34.8198C17.7797 34.5444 17.625 34.1708 17.625 33.7812V30.8438Z" fill="#097CFA"/>
</g>
<defs>
<clipPath id="clip0_1110_1283">
<rect width="47" height="47" fill="white"/>
</clipPath>
</defs>
</svg>
