<svg width="13" height="12" viewBox="0 0 13 12" fill="none" xmlns="http://www.w3.org/2000/svg">
<path d="M11.1042 0H5.6875C5.18486 0.000541441 4.70296 0.201851 4.34754 0.559758C3.99212 0.917665 3.7922 1.40293 3.79167 1.90909V5.45455H8.98388L7.20044 3.6583C7.10315 3.55517 7.04971 3.41785 7.05152 3.27562C7.05333 3.13339 7.11024 2.99749 7.21012 2.89691C7.31001 2.79632 7.44496 2.73901 7.5862 2.73719C7.72745 2.73537 7.86382 2.78918 7.96622 2.88716L10.6746 5.61443C10.7761 5.71671 10.8331 5.8554 10.8331 6C10.8331 6.1446 10.7761 6.28329 10.6746 6.38557L7.96622 9.11284C7.86382 9.21082 7.72745 9.26463 7.5862 9.26281C7.44496 9.26099 7.31001 9.20368 7.21012 9.10309C7.11024 9.00251 7.05333 8.86662 7.05152 8.72438C7.04971 8.58215 7.10315 8.44483 7.20044 8.34171L8.98388 6.54545H3.79167V10.0909C3.79167 11.1835 4.9356 12 5.95833 12H11.1042C11.6068 11.9995 12.0887 11.7981 12.4441 11.4402C12.7996 11.0823 12.9995 10.5971 13 10.0909V1.90909C12.9995 1.40293 12.7996 0.917665 12.4441 0.559758C12.0887 0.201851 11.6068 0.000541441 11.1042 0ZM0.541667 5.45455C0.398008 5.45455 0.260233 5.51201 0.158651 5.61431C0.0570684 5.7166 0 5.85534 0 6C0 6.14466 0.0570684 6.2834 0.158651 6.38569C0.260233 6.48799 0.398008 6.54545 0.541667 6.54545H3.79167V5.45455H0.541667Z" fill="#076CDB"/>
</svg>
