<svg width="53" height="25" viewBox="0 0 53 25" fill="none" xmlns="http://www.w3.org/2000/svg">
<path d="M52.7836 22.6406L46.7176 12.2969L52.7217 2.375C52.8643 2.13856 52.9421 1.86813 52.9471 1.59137C52.9522 1.31461 52.8844 1.04146 52.7506 0.799863C52.6168 0.558266 52.4218 0.356897 52.1856 0.216357C51.9494 0.0758174 51.6805 0.00115179 51.4064 0H3.09491C2.27409 0 1.48688 0.329241 0.906477 0.915292C0.32607 1.50134 0 2.2962 0 3.125L0 21.875C0 22.7038 0.32607 23.4987 0.906477 24.0847C1.48688 24.6708 2.27409 25 3.09491 25H51.4528C51.7259 25 51.9942 24.9269 52.2303 24.7883C52.4665 24.6497 52.662 24.4504 52.7972 24.2108C52.9324 23.9711 53.0023 23.6996 52.9999 23.4239C52.9976 23.1481 52.9229 22.8778 52.7836 22.6406ZM16.2637 17.4688H14.5306L9.48589 10.6875V17.4844H7.73727V7.8125H9.48589L14.5461 14.6094V7.8125H16.2792L16.2637 17.4688ZM26.0591 9.375H20.5966V11.7031H25.5485V13.2656H20.5966V15.7813H26.0591V17.3438H18.848V7.8125H26.0436L26.0591 9.375ZM38.8875 17.4375H37.1389L34.7403 10.2656L32.3418 17.4688H30.6086L27.5137 7.8125H29.4016L31.4442 14.7344L33.7964 7.8125H35.6843L37.9436 14.7344L40.0017 7.8125H41.905L38.8875 17.4375Z" fill="#097CFA"/>
</svg>
