<svg width="21" height="30" viewBox="0 0 21 30" fill="none" xmlns="http://www.w3.org/2000/svg">
<path fill-rule="evenodd" clip-rule="evenodd" d="M19.5007 18C19.7563 17.9999 20.0077 17.9344 20.2309 17.8099C20.4541 17.6853 20.6417 17.5058 20.7761 17.2884C20.9104 17.071 20.987 16.8228 20.9985 16.5675C21.01 16.3122 20.956 16.0581 20.8418 15.8295L18.1777 10.5L20.8418 5.1705C20.956 4.94187 21.01 4.68784 20.9985 4.43251C20.987 4.17718 20.9104 3.92903 20.7761 3.71159C20.6417 3.49416 20.4541 3.31465 20.2309 3.19012C20.0077 3.06558 19.7563 3.00014 19.5007 3H3.00011V1.5C3.00011 1.10218 2.84207 0.720644 2.56076 0.43934C2.27944 0.158035 1.8979 0 1.50006 0C1.10222 0 0.720672 0.158035 0.439357 0.43934C0.158042 0.720644 0 1.10218 0 1.5V28.5C0 28.8978 0.158042 29.2794 0.439357 29.5607C0.720672 29.842 1.10222 30 1.50006 30C1.8979 30 2.27944 29.842 2.56076 29.5607C2.84207 29.2794 3.00011 28.8978 3.00011 28.5V18H19.5007Z" fill="#3292FB"/>
</svg>
