<svg width="128" height="128" viewBox="0 0 128 128" fill="none" xmlns="http://www.w3.org/2000/svg">
<path d="M112.159 3.85C112.159 3.85 108.185 3 102.224 3C86.6108 3 57.9399 8.95 62.4818 53.4333C65.6044 53.7167 68.7269 54 71.5657 54C122.378 54 112.159 3.85 112.159 3.85ZM73.2689 42.6667C73.2689 42.6667 73.2689 14.3333 101.656 14.3333C101.656 14.3333 84.6237 20 73.2689 42.6667Z" fill="#ACD3FD"/>
<circle cx="18" cy="18" r="18" transform="matrix(-1 0 0 1 50 30)" fill="#5AA7FC"/>
<path d="M40.2353 36.4444L39.7059 32L43.4118 34.7778L45 36.4444L43.4118 39.7778L41.8235 43.1111L39.7059 44.7778L36 47L38.6471 43.1111L40.2353 39.7778V36.4444Z" fill="#097CFA" stroke="#097CFA"/>
<path fill-rule="evenodd" clip-rule="evenodd" d="M79.77 83.8244L50.4745 113.12C44.5337 104.918 45.2581 93.3874 52.6478 85.9977C60.0375 78.608 71.5684 77.8836 79.77 83.8244Z" fill="#83BDFD"/>
<path fill-rule="evenodd" clip-rule="evenodd" d="M84.9974 78.3525C82.9073 76.9371 80.4984 75.9588 77.8826 75.4755C74.1178 74.7799 70.0568 75.134 66.1063 76.5024C62.1557 77.8707 58.4544 80.2053 55.3731 83.2723C52.2917 86.3392 49.9384 90.0309 48.549 93.9775C47.1595 97.9241 46.7827 101.987 47.4561 105.76C47.9313 108.421 48.9175 110.872 50.3549 112.995L84.9974 78.3525Z" fill="#83BDFD"/>
<path fill-rule="evenodd" clip-rule="evenodd" d="M84.6424 78.3501C86.0686 80.451 87.0574 82.8705 87.5503 85.4959C88.2597 89.2745 87.917 93.347 86.5567 97.3055C85.1963 101.264 82.866 104.97 79.7991 108.051C76.7321 111.132 73.0363 113.481 69.0818 114.863C65.1273 116.245 61.0529 116.61 57.2666 115.923C54.5953 115.438 52.1336 114.441 49.9999 112.993L84.6424 78.3501Z" fill="#83BDFD"/>
<path d="M84.5 78.3501L50.5 112.85" stroke="#097CFA"/>
<path d="M84 78.8501L75 81.8501L65.5 88.3501L56.5 97.3501L49.5 112.35" stroke="#097CFA"/>
<path d="M85 78.3501L81.5 89.8501L77 96.3501L69.5 103.85L61.5 109.35L53 114.85" stroke="#097CFA"/>
<path d="M84 77.8501H71L61 83.3501L52 93.3501L49 110.85" stroke="#097CFA"/>
<path d="M85 79.3501L83.5 96.3501L77 106.85L64 111.85L54 114.85" stroke="#097CFA"/>
</svg>
