<svg width="24" height="24" viewBox="0 0 24 24" fill="none" xmlns="http://www.w3.org/2000/svg">
<path fill-rule="evenodd" clip-rule="evenodd" d="M11 3L2.75476 12.2153C2.5907 12.3986 2.5 12.636 2.5 12.8821V14.6667C2.5 15.5321 2.78071 16.3743 3.3 17.0667L3.59142 17.4552C3.85634 17.8085 4.2307 18.0641 4.65613 18.1823L12.3776 20.3271C12.7565 20.4324 13.1618 20.3058 13.4135 20.0038L20.3469 11.6837C20.4437 11.5675 20.4828 11.4138 20.4531 11.2655L20.099 9.49515C20.0872 9.43593 20 9.44456 20 9.50495V10.5L12.9281 18.9862C12.669 19.2972 12.248 19.4212 11.8617 19.3005L5.3119 17.2537C4.79312 17.0916 4.36266 16.7253 4.11959 16.2392L3.81672 15.6334C3.60844 15.2169 3.5 14.7575 3.5 14.2918V13L12.3846 15.3381C12.7601 15.4369 13.1588 15.3094 13.4074 15.0112L20.2954 6.7455C20.4276 6.58687 20.5 6.38692 20.5 6.18043C20.5 5.77947 20.2297 5.42888 19.842 5.32683L11 3Z" fill="black" stroke="black"/>
</svg>
