<svg width="33" height="30" viewBox="0 0 33 30" fill="none" xmlns="http://www.w3.org/2000/svg">
<path d="M26.4 20H23.1V23.3333H26.4M26.4 13.3333H23.1V16.6667H26.4M29.7 26.6667H16.5V23.3333H19.8V20H16.5V16.6667H19.8V13.3333H16.5V10H29.7M13.2 6.66667H9.9V3.33333H13.2M13.2 13.3333H9.9V10H13.2M13.2 20H9.9V16.6667H13.2M13.2 26.6667H9.9V23.3333H13.2M6.6 6.66667H3.3V3.33333H6.6M6.6 13.3333H3.3V10H6.6M6.6 20H3.3V16.6667H6.6M6.6 26.6667H3.3V23.3333H6.6M16.5 6.66667V0H0V30H33V6.66667H16.5Z" fill="#3292FB"/>
</svg>
