<svg width="32" height="32" viewBox="0 0 32 32" fill="none" xmlns="http://www.w3.org/2000/svg">
<path d="M24 20.3333H21.5V22.8889H24M24 15.2222H21.5V17.7778H24M26.5 25.4444H16.5V22.8889H19V20.3333H16.5V17.7778H19V15.2222H16.5V12.6667H26.5M14 10.1111H11.5V7.55556H14M14 15.2222H11.5V12.6667H14M14 20.3333H11.5V17.7778H14M14 25.4444H11.5V22.8889H14M9 10.1111H6.5V7.55556H9M9 15.2222H6.5V12.6667H9M9 20.3333H6.5V17.7778H9M9 25.4444H6.5V22.8889H9M16.5 10.1111V5H4V28H29V10.1111H16.5Z" fill="black"/>
</svg>
