<svg width="66" height="66" viewBox="0 0 66 66" fill="none" xmlns="http://www.w3.org/2000/svg">
<path d="M28.251 12.837C28.4196 12.078 28.5076 11.2878 28.5076 10.4757C28.5076 4.68967 24.0307 0 18.507 0C12.9852 0 8.50829 4.68967 8.50829 10.4757C8.50829 11.2878 8.59629 12.078 8.76312 12.837C5.68319 14.1203 3.50708 17.27 3.50708 20.9513C3.50708 21.846 3.63541 22.7058 3.87374 23.518C2.49918 24.2509 1.40905 25.4222 0.776629 26.8458C0.14421 28.2694 0.00580093 29.8636 0.383406 31.3749C0.761011 32.8862 1.63296 34.2279 2.86064 35.1867C4.08832 36.1455 5.60127 36.6665 7.15899 36.6667H16.4996V60.5H2.74993C2.02061 60.5 1.32115 60.7897 0.805436 61.3055C0.289724 61.8212 0 62.5207 0 63.25C0 63.9793 0.289724 64.6788 0.805436 65.1945C1.32115 65.7103 2.02061 66 2.74993 66H63.2485C63.9778 66 64.6772 65.7103 65.193 65.1945C65.7087 64.6788 65.9984 63.9793 65.9984 63.25C65.9984 62.5207 65.7087 61.8212 65.193 61.3055C64.6772 60.7897 63.9778 60.5 63.2485 60.5H60.5407C60.8381 60.4932 61.1295 60.4141 61.3895 60.2695C61.6496 60.1249 61.8705 59.9193 62.0333 59.6702C62.1961 59.4211 62.2958 59.1362 62.3239 58.84C62.3519 58.5438 62.3075 58.2452 62.1943 57.97L59.2317 50.7668C59.1328 50.5254 58.9834 50.3079 58.7936 50.1288L53.6695 45.3035L55.3892 38.687C55.9208 39.6587 56.4726 40.5387 57.1308 41.283C57.9374 42.196 58.8797 42.8853 60.0824 43.3363C61.2483 43.7727 62.5756 43.956 64.1156 44C64.6018 44.0134 65.0734 43.833 65.4267 43.4987C65.78 43.1643 65.9859 42.7033 65.9993 42.2171C66.0127 41.7309 65.8324 41.2592 65.498 40.906C65.1636 40.5527 64.7027 40.3467 64.2164 40.3333C62.8855 40.2967 62.0055 40.1408 61.3693 39.9025C60.7902 39.6894 60.2766 39.3293 59.8789 38.8575C59.4059 38.3203 58.9384 37.5705 58.3517 36.454C58.0089 35.8013 57.6624 35.0973 57.2664 34.2907C56.9694 33.6857 56.6431 33.0257 56.2691 32.2832C55.6183 30.9962 54.2488 30.2005 53.147 29.7935C52.0379 29.3828 50.5254 29.1152 49.2495 29.5717C43.7404 31.5352 40.622 35.7188 38.5981 41.5672C38.4391 42.0269 38.4692 42.531 38.6819 42.9685C38.8945 43.406 39.2722 43.7411 39.7319 43.9001C40.1917 44.0591 40.6957 44.0289 41.1332 43.8163C41.5707 43.6036 41.9058 43.2259 42.0648 42.7662C43.1831 39.5358 44.5672 37.1323 46.4372 35.4218L45.8396 42.0017C45.8145 42.2784 45.8526 42.5571 45.951 42.8169C46.0495 43.0767 46.2057 43.3108 46.4079 43.5013L55.9923 52.5268L58.8027 59.3652C58.9383 59.6945 59.1669 59.9772 59.4606 60.1788C59.7543 60.3803 60.1003 60.4919 60.4564 60.5H40.3507C40.7357 60.4963 41.1207 60.3717 41.4507 60.1205L46.9505 55.8892C47.2539 55.6552 47.4764 55.3321 47.5867 54.9652L49.167 49.731L46.1365 46.8618L45.7681 48.3028L44.2464 53.3427L39.214 57.2128C38.9115 57.4453 38.6889 57.7663 38.5775 58.1312C38.466 58.4961 38.4712 58.8867 38.5923 59.2485C38.7134 59.6104 38.9443 59.9254 39.2529 60.1497C39.5616 60.3741 39.9325 60.4965 40.314 60.5H20.1662V36.6667H29.8569C31.4147 36.6665 32.9276 36.1455 34.1553 35.1867C35.383 34.2279 36.2549 32.8862 36.6325 31.3749C37.0101 29.8636 36.8717 28.2694 36.2393 26.8458C35.6069 25.4222 34.5168 24.2509 33.1422 23.518C33.3858 22.6843 33.5086 21.8199 33.507 20.9513C33.507 17.27 31.3291 14.1203 28.251 12.837ZM58.6652 22.9167C58.6652 24.1322 58.1824 25.298 57.3228 26.1576C56.4633 27.0171 55.2976 27.5 54.082 27.5C52.8665 27.5 51.7007 27.0171 50.8412 26.1576C49.9817 25.298 49.4988 24.1322 49.4988 22.9167C49.4988 21.7011 49.9817 20.5353 50.8412 19.6758C51.7007 18.8162 52.8665 18.3333 54.082 18.3333C55.2976 18.3333 56.4633 18.8162 57.3228 19.6758C58.1824 20.5353 58.6652 21.7011 58.6652 22.9167Z" fill="#097CFA"/>
</svg>
