<svg width="21" height="21" viewBox="0 0 21 21" fill="none" xmlns="http://www.w3.org/2000/svg">
<path d="M21 10.5C21 16.299 16.299 21 10.5 21C4.70101 21 0 16.299 0 10.5C0 4.70101 4.70101 0 10.5 0C16.299 0 21 4.70101 21 10.5Z" fill="#3292FB"/>
<path fill-rule="evenodd" clip-rule="evenodd" d="M10.5 20C15.7467 20 20 15.7467 20 10.5C20 5.25329 15.7467 1 10.5 1C5.25329 1 1 5.25329 1 10.5C1 15.7467 5.25329 20 10.5 20ZM10.5 21C16.299 21 21 16.299 21 10.5C21 4.70101 16.299 0 10.5 0C4.70101 0 0 4.70101 0 10.5C0 16.299 4.70101 21 10.5 21Z" fill="#076CDB"/>
<path d="M14.9342 8.43292L9.70169 13.9247C9.6557 13.9729 9.59336 14 9.52836 14C9.46337 14 9.40103 13.9729 9.35504 13.9247L7.06583 11.5221C7.0225 11.4733 6.99892 11.4087 7.00004 11.342C7.00116 11.2753 7.0269 11.2117 7.07184 11.1645C7.11678 11.1174 7.1774 11.0904 7.24095 11.0892C7.30449 11.088 7.36598 11.1128 7.41248 11.1582L9.52836 13.3785L14.5875 8.06909C14.634 8.02362 14.6955 7.99886 14.7591 8.00004C14.8226 8.00122 14.8832 8.02823 14.9282 8.0754C14.9731 8.12256 14.9988 8.1862 15 8.25289C15.0011 8.31958 14.9775 8.38412 14.9342 8.43292Z" fill="#076CDB"/>
<path fill-rule="evenodd" clip-rule="evenodd" d="M15.079 8.57087L9.84649 14.0627C9.76382 14.1493 9.64957 14.2 9.52836 14.2C9.40716 14.2 9.29299 14.1494 9.21033 14.0628L6.91617 11.6549C6.83878 11.5677 6.79812 11.4542 6.80007 11.3386C6.80201 11.2231 6.84656 11.111 6.92704 11.0266C7.0078 10.9418 7.11879 10.8914 7.23724 10.8892C7.35572 10.887 7.46854 10.9333 7.55232 11.0152L7.55735 11.0202L9.52836 13.0886L14.4476 7.926C14.5314 7.84407 14.6443 7.79787 14.7628 7.80006C14.8812 7.80226 14.9922 7.85266 15.073 7.93743C15.1534 8.02189 15.198 8.13395 15.1999 8.24951C15.2019 8.36507 15.1611 8.47852 15.0837 8.56569L15.079 8.57087ZM9.52836 13.3785L7.41248 11.1582C7.36598 11.1128 7.30449 11.088 7.24095 11.0892C7.1774 11.0904 7.11678 11.1174 7.07184 11.1645C7.0269 11.2117 7.00116 11.2753 7.00004 11.342C6.99892 11.4087 7.0225 11.4733 7.06583 11.5221L9.35504 13.9247C9.40103 13.9729 9.46337 14 9.52836 14C9.59336 14 9.6557 13.9729 9.70169 13.9247L14.9342 8.43292C14.9775 8.38412 15.0011 8.31958 15 8.25289C14.9988 8.1862 14.9731 8.12256 14.9282 8.0754C14.8832 8.02823 14.8226 8.00122 14.7591 8.00004C14.6955 7.99886 14.634 8.02362 14.5875 8.06909L9.52836 13.3785Z" fill="#076CDB"/>
</svg>
