<svg width="47" height="47" viewBox="0 0 47 47" fill="none" xmlns="http://www.w3.org/2000/svg">
<path d="M22.3205 7.98509V0H24.6795V7.98509H22.3205ZM35.2854 13.3848L33.6742 11.7736L39.2366 5.98941L40.9516 7.71853L35.2854 13.3848ZM39.0126 24.6795V22.3205H47V24.6795H39.0126ZM22.3205 47V39.0597H24.6795V47H22.3205ZM11.8043 13.3093L5.98941 7.76335L7.76335 6.0932L13.4272 11.7146L11.8043 13.3093ZM39.2225 41.0082L33.6742 35.2241L35.2712 33.6719L40.9068 39.2083L39.2225 41.0082ZM0 24.6795V22.3205H7.98509V24.6795H0ZM7.71853 41.0106L6.0932 39.2366L11.6556 33.6742L12.5049 34.4975L13.3966 35.3302L7.71853 41.0106ZM23.5118 35.2948C20.2376 35.2948 17.4516 34.1492 15.154 31.8578C12.8548 29.5665 11.7052 26.7845 11.7052 23.5118C11.7052 20.2376 12.8509 17.4516 15.1422 15.154C17.4335 12.8548 20.2155 11.7052 23.4882 11.7052C26.7624 11.7052 29.5484 12.8509 31.846 15.1422C34.1452 17.4335 35.2948 20.2155 35.2948 23.4882C35.2948 26.7624 34.1492 29.5484 31.8578 31.846C29.5665 34.1452 26.7845 35.2948 23.5118 35.2948Z" fill="#097CFA"/>
</svg>
