<svg width="35" height="30" viewBox="0 0 35 30" fill="none" xmlns="http://www.w3.org/2000/svg">
<path fill-rule="evenodd" clip-rule="evenodd" d="M12.1835 27.2983C7.03325 23.3189 0 16.7454 0 10.5301C0 0.146643 9.625 -3.73039 17.5 4.28838C25.375 -3.73039 35 0.146643 35 10.5301C35 16.7454 27.965 23.3189 22.8165 27.2983C20.4855 29.0982 19.32 30 17.5 30C15.68 30 14.5145 29.1 12.1835 27.2983ZM25.375 5.73543C25.7231 5.73543 26.0569 5.87488 26.3031 6.12308C26.5492 6.37129 26.6875 6.70794 26.6875 7.05896V9.26482H28.875C29.2231 9.26482 29.5569 9.40427 29.8031 9.65248C30.0492 9.90069 30.1875 10.2373 30.1875 10.5883C30.1875 10.9394 30.0492 11.276 29.8031 11.5242C29.5569 11.7724 29.2231 11.9119 28.875 11.9119H26.6875V14.1177C26.6875 14.4688 26.5492 14.8054 26.3031 15.0536C26.0569 15.3018 25.7231 15.4413 25.375 15.4413C25.0269 15.4413 24.6931 15.3018 24.4469 15.0536C24.2008 14.8054 24.0625 14.4688 24.0625 14.1177V11.9119H21.875C21.5269 11.9119 21.1931 11.7724 20.9469 11.5242C20.7008 11.276 20.5625 10.9394 20.5625 10.5883C20.5625 10.2373 20.7008 9.90069 20.9469 9.65248C21.1931 9.40427 21.5269 9.26482 21.875 9.26482H24.0625V7.05896C24.0625 6.70794 24.2008 6.37129 24.4469 6.12308C24.6931 5.87488 25.0269 5.73543 25.375 5.73543Z" fill="#3292FB"/>
</svg>
