<svg width="31" height="30" viewBox="0 0 31 30" fill="none" xmlns="http://www.w3.org/2000/svg">
<path d="M30.2255 13.6652L23.9882 19.1326L25.8566 27.2724C25.9555 27.698 25.9273 28.1433 25.7755 28.5528C25.6237 28.9623 25.3551 29.3178 25.0033 29.5749C24.6515 29.8319 24.232 29.979 23.7973 29.9979C23.3627 30.0168 22.9321 29.9066 22.5595 29.681L15.491 25.375L8.43771 29.681C8.06509 29.9066 7.63454 30.0168 7.19989 29.9979C6.76524 29.979 6.34578 29.8319 5.99394 29.5749C5.64211 29.3178 5.37352 28.9623 5.22175 28.5528C5.06998 28.1433 5.04177 27.698 5.14064 27.2724L7.00631 19.1409L0.767596 13.6652C0.437624 13.3794 0.19902 13.0021 0.0817051 12.5806C-0.0356096 12.1591 -0.0264127 11.7122 0.108143 11.2959C0.242698 10.8797 0.496621 10.5126 0.838071 10.2407C1.17952 9.96879 1.5933 9.8042 2.02751 9.76756L10.2508 9.05219L13.4608 1.36239C13.6284 0.958888 13.9111 0.614223 14.2734 0.371792C14.6357 0.12936 15.0612 0 15.4965 0C15.9319 0 16.3574 0.12936 16.7197 0.371792C17.0819 0.614223 17.3647 0.958888 17.5323 1.36239L20.7519 9.05219L28.9725 9.76756C29.4067 9.8042 29.8205 9.96879 30.1619 10.2407C30.5034 10.5126 30.7573 10.8797 30.8919 11.2959C31.0264 11.7122 31.0356 12.1591 30.9183 12.5806C30.801 13.0021 30.5624 13.3794 30.2324 13.6652H30.2255Z" fill="#3292FB"/>
</svg>
