<svg width="13" height="12" viewBox="0 0 13 12" fill="none" xmlns="http://www.w3.org/2000/svg">
<path d="M1.89583 0H7.3125C7.81514 0.000541441 8.29704 0.201851 8.65246 0.559758C9.00788 0.917665 9.2078 1.40293 9.20833 1.90909V5.45455H4.01612L5.79956 3.6583C5.89685 3.55517 5.95029 3.41785 5.94848 3.27562C5.94667 3.13339 5.88976 2.99749 5.78988 2.89691C5.68999 2.79632 5.55504 2.73901 5.4138 2.73719C5.27255 2.73537 5.13618 2.78918 5.03378 2.88716L2.32544 5.61443C2.22394 5.71671 2.16692 5.8554 2.16692 6C2.16692 6.1446 2.22394 6.28329 2.32544 6.38557L5.03378 9.11284C5.13618 9.21082 5.27255 9.26463 5.4138 9.26281C5.55504 9.26099 5.68999 9.20368 5.78988 9.10309C5.88976 9.00251 5.94667 8.86662 5.94848 8.72438C5.95029 8.58215 5.89685 8.44483 5.79956 8.34171L4.01612 6.54545H9.20833V10.0909C9.20833 11.1835 8.0644 12 7.04167 12H1.89583C1.39319 11.9995 0.911291 11.7981 0.55587 11.4402C0.200449 11.0823 0.000537872 10.5971 0 10.0909V1.90909C0.000537872 1.40293 0.200449 0.917665 0.55587 0.559758C0.911291 0.201851 1.39319 0.000541441 1.89583 0ZM12.4583 5.45455C12.602 5.45455 12.7398 5.51201 12.8413 5.61431C12.9429 5.7166 13 5.85534 13 6C13 6.14466 12.9429 6.2834 12.8413 6.38569C12.7398 6.48799 12.602 6.54545 12.4583 6.54545H9.20833V5.45455H12.4583Z" fill="#F92407"/>
</svg>
