<svg width="21" height="21" viewBox="0 0 21 21" fill="none" xmlns="http://www.w3.org/2000/svg">
<path d="M21 10.5C21 16.299 16.299 21 10.5 21C4.70101 21 0 16.299 0 10.5C0 4.70101 4.70101 0 10.5 0C16.299 0 21 4.70101 21 10.5Z" fill="white"/>
<path fill-rule="evenodd" clip-rule="evenodd" d="M10.5 20C15.7467 20 20 15.7467 20 10.5C20 5.25329 15.7467 1 10.5 1C5.25329 1 1 5.25329 1 10.5C1 15.7467 5.25329 20 10.5 20ZM10.5 21C16.299 21 21 16.299 21 10.5C21 4.70101 16.299 0 10.5 0C4.70101 0 0 4.70101 0 10.5C0 16.299 4.70101 21 10.5 21Z" fill="#076CDB"/>
<path d="M7 7.38886C7 7.28572 7.04339 7.18682 7.12062 7.11389C7.19785 7.04097 7.30259 7 7.41181 7C7.52103 7 7.62578 7.04097 7.70301 7.11389C7.78024 7.18682 7.82363 7.28572 7.82363 7.38886V9.91486L12.9853 7.0871C13.4301 6.84368 14 7.13843 14 7.62839V13.371C14 13.861 13.4301 14.1565 12.9853 13.9131L7.82363 11.0853V13.6105C7.82363 13.7137 7.78024 13.8126 7.70301 13.8855C7.62578 13.9584 7.52103 13.9994 7.41181 13.9994C7.30259 13.9994 7.19785 13.9584 7.12062 13.8855C7.04339 13.8126 7 13.7137 7 13.6105V7.38886Z" fill="#076CDB"/>
</svg>
